<?xml version="1.0" encoding="UTF-8" standalone="no"?>
<svg xmlns="http://www.w3.org/2000/svg" xmlns:xlink="http://www.w3.org/1999/xlink" xmlns:serif="http://www.serif.com/" width="100%" height="100%" viewBox="0 0 512 512" version="1.1" xml:space="preserve" style="fill-rule:evenodd;clip-rule:evenodd;stroke-linejoin:round;stroke-miterlimit:2;">
  <g>
    <g>
      <path d="M372.983,214.12l41.823,41.822c7.233,-4.519 14.069,-9.915 20.35,-16.193c7.296,-7.299 13.403,-15.347 18.32,-23.901c-32.005,0.087 -58.066,-0.565 -80.493,-1.728m-7.779,58.654l-65.162,-65.163c-39.415,-4.916 -75.109,-11.058 -136.292,-15.566l-15.648,0c-38.045,-2.338 -75.418,-17.977 -104.385,-46.941c-22.896,-22.897 -37.46,-51.048 -43.717,-80.631l48.257,0c5.31,17.417 14.821,33.806 28.555,47.537c44.78,44.787 117.834,44.787 162.621,-0l0.007,0.006c63.013,-63.009 165.795,-63.009 228.807,0c22.741,22.741 37.269,50.662 43.597,80.029l0.156,0c-6.236,29.642 -20.813,57.852 -43.753,80.795c-62.124,62.12 -162.903,62.991 -226.117,2.62l32.711,-33.468c25.034,23.678 58.243,33.939 90.363,30.782m10.685,-106.396l38.015,-38.011c7.567,4.627 14.712,10.205 21.252,16.745c7.184,7.18 13.211,15.096 18.09,23.503c-31.531,-0.265 -56.387,-1.063 -77.357,-2.237m-12.016,-54.417l-49.16,49.163c-17.197,-1.972 -33.569,-4.156 -52.77,-6.341c3.638,-3.038 7.171,-6.268 10.581,-9.679l0.008,0.008c24.939,-24.939 58.636,-35.984 91.341,-33.151" style="fill:#fff;"></path>
      <path d="M468.247,367.439c-63.012,-63.012 -165.794,-63.012 -228.807,-0.003l-0,0.003l-0.007,-0.006c-44.784,44.783 -117.841,44.783 -162.624,-0c-13.668,-13.668 -23.155,-29.974 -28.483,-47.303l0.007,-0c5.327,-17.323 14.811,-33.622 28.476,-47.286c42.379,-42.376 110.064,-44.641 155.161,-6.818l32.775,-33.53c-63.424,-55.634 -160.545,-53.223 -221.028,7.26c-22.831,22.828 -37.381,50.881 -43.669,80.374c6.282,29.495 20.834,57.556 43.669,80.394c29.241,29.241 67.05,44.902 105.469,47.003l17.87,-0c38.422,-2.101 76.227,-17.762 105.468,-47.003l0.007,0.007c44.784,-44.788 117.837,-44.788 162.625,-0c13.588,13.591 23.043,29.782 28.391,46.996l48.31,-0c-6.32,-29.385 -20.852,-57.33 -43.61,-80.088m-375.2,-72.597c-14.266,0 -25.9,11.63 -25.9,25.901c-0,14.267 11.634,25.9 25.9,25.9c14.268,-0 25.905,-11.633 25.905,-25.9c-0,-14.271 -11.637,-25.901 -25.905,-25.901" style="fill:#fff;"></path>
    </g>
  </g>
</svg>
